<svg xmlns="http://www.w3.org/2000/svg" width="96" height="80"><g fill="none"><path fill="#B4E66E" d="M81.532 44.623V23.412c0-1.168-.66-2.235-1.704-2.757l-3.609-1.804a1.54 1.54 0 0 1-.852-1.379v-3.67h-6.164v3.67c0 .584-.33 1.118-.852 1.379l-3.608 1.804a3.082 3.082 0 0 0-1.704 2.757v21.211h18.493z"/><path fill="#7F8499" d="M66.121 44.623H78.45v20.033H66.121z"/><path fill="#A0D755" d="M71.514 21.507h1.541v23.116h-1.541z"/><path fill="#E6AF78" d="M72.285 21.507a3.082 3.082 0 0 1-3.082-3.082V13.8h6.164v4.624a3.082 3.082 0 0 1-3.082 3.082z"/><path fill="#F0C087" d="M72.285 15.343a6.164 6.164 0 0 1-6.164-6.165V6.096a4.623 4.623 0 0 1 4.623-4.623h3.082a4.623 4.623 0 0 1 4.624 4.623v3.082a6.165 6.165 0 0 1-6.165 6.165z"/><path fill="#E6AF78" d="M70.744 9.178V6.096a4.614 4.614 0 0 1 3.853-4.545 4.594 4.594 0 0 0-.77-.078h-3.083a4.623 4.623 0 0 0-4.623 4.623v3.082a6.164 6.164 0 0 0 6.164 6.165c.819 0 1.597-.168 2.312-.457a6.16 6.16 0 0 1-3.853-5.708z"/><path fill="#694B4B" d="M66.12 6.096s4.624 1.541 12.33 1.541v-1.54a4.623 4.623 0 0 0-4.624-4.624h-3.082a4.623 4.623 0 0 0-4.623 4.623z"/><path fill="#5A4146" d="M70.744 6.096a4.614 4.614 0 0 1 3.853-4.545 4.594 4.594 0 0 0-.77-.078h-3.083a4.623 4.623 0 0 0-4.623 4.623s1.657.548 4.623.99v-.99z"/><path d="M66.43 23.664l-2.765-2.073a3.054 3.054 0 0 0-.626 1.82v21.212h4.623V26.13c0-.97-.457-1.884-1.233-2.466zm11.712 0l2.764-2.073c.387.521.626 1.147.626 1.82v21.212h-4.623V26.13c0-.97.456-1.884 1.233-2.466z" fill="#A0D755"/><path fill="#FFF082" d="M32.217 44.623V23.412c0-1.168-.66-2.235-1.704-2.757l-3.608-1.804a1.54 1.54 0 0 1-.852-1.379v-3.67h-6.165v3.67c0 .584-.33 1.118-.851 1.379l-3.61 1.804a3.082 3.082 0 0 0-1.703 2.757v21.211h18.493z"/><path fill="#707487" d="M16.806 44.623h12.329v20.033H16.806z"/><path fill="#FFDC64" d="M22.201 21.507h1.541v23.116h-1.541z"/><path fill="#E6AF78" d="M22.97 21.507a3.082 3.082 0 0 1-3.082-3.082V13.8h6.164v4.624a3.082 3.082 0 0 1-3.082 3.082z"/><path fill="#F0C087" d="M22.97 15.343a6.164 6.164 0 0 1-6.164-6.165V6.096a4.623 4.623 0 0 1 4.624-4.623h3.082a4.623 4.623 0 0 1 4.623 4.623v3.082a6.165 6.165 0 0 1-6.164 6.165z"/><path fill="#E6AF78" d="M21.43 9.178V6.096a4.614 4.614 0 0 1 3.852-4.545 4.594 4.594 0 0 0-.77-.078h-3.083a4.623 4.623 0 0 0-4.623 4.623v3.082a6.164 6.164 0 0 0 6.164 6.165c.819 0 1.597-.168 2.312-.457a6.16 6.16 0 0 1-3.853-5.708z"/><path fill="#694B4B" d="M16.806 6.096s4.623 1.541 12.329 1.541v-1.54a4.623 4.623 0 0 0-4.623-4.624h-3.083a4.623 4.623 0 0 0-4.623 4.623z"/><path fill="#5A4146" d="M21.43 6.096a4.614 4.614 0 0 1 3.852-4.545 4.594 4.594 0 0 0-.77-.078h-3.083a4.623 4.623 0 0 0-4.623 4.623s1.657.548 4.623.99v-.99z"/><path d="M17.114 23.664l-2.764-2.073a3.054 3.054 0 0 0-.626 1.82v21.212h4.623V26.13c0-.97-.457-1.884-1.233-2.466zm11.712 0l2.765-2.073c.386.521.626 1.147.626 1.82v21.212h-4.624V26.13c0-.97.457-1.884 1.233-2.466z" fill="#FFDC64"/><path fill="#E2E7F2" d="M56.874 44.623V23.412c0-1.168-.66-2.235-1.703-2.757l-3.61-1.804a1.54 1.54 0 0 1-.85-1.379v-3.67h-6.165v3.67c0 .584-.33 1.118-.852 1.379l-3.609 1.804a3.082 3.082 0 0 0-1.703 2.757v21.211h18.492z"/><path fill="#7F8499" d="M41.464 44.623h12.329v20.033H41.464z"/><path fill="#C7CFE2" d="M46.858 21.507h1.541v23.116h-1.541z"/><path fill="#E6AF78" d="M47.628 21.507a3.082 3.082 0 0 1-3.082-3.082V13.8h6.164v4.624a3.082 3.082 0 0 1-3.082 3.082z"/><path fill="#F0C087" d="M47.628 15.343a6.164 6.164 0 0 1-6.164-6.165V6.096a4.623 4.623 0 0 1 4.623-4.623h3.082a4.623 4.623 0 0 1 4.623 4.623v3.082a6.165 6.165 0 0 1-6.164 6.165z"/><path fill="#E6AF78" d="M46.087 9.178V6.096a4.614 4.614 0 0 1 3.853-4.545 4.594 4.594 0 0 0-.771-.078h-3.082a4.623 4.623 0 0 0-4.624 4.623v3.082a6.164 6.164 0 0 0 6.165 6.165c.819 0 1.597-.168 2.311-.457a6.16 6.16 0 0 1-3.852-5.708z"/><path fill="#694B4B" d="M41.464 6.096s4.623 1.541 12.328 1.541v-1.54a4.623 4.623 0 0 0-4.623-4.624h-3.082a4.623 4.623 0 0 0-4.623 4.623z"/><path fill="#5A4146" d="M46.087 6.096a4.614 4.614 0 0 1 3.853-4.545 4.594 4.594 0 0 0-.771-.078h-3.082a4.623 4.623 0 0 0-4.624 4.623s1.658.548 4.624.99v-.99z"/><path d="M41.772 23.664l-2.764-2.073a3.054 3.054 0 0 0-.626 1.82v21.212h4.623V26.13c0-.97-.457-1.884-1.233-2.466zm11.713 0l2.764-2.073c.387.521.626 1.147.626 1.82v21.212h-4.623V26.13c0-.97.456-1.884 1.233-2.466z" fill="#C7CFE2"/><path fill="#00C3FF" d="M18.185 46.854l-3.61-1.805a1.54 1.54 0 0 1-.85-1.378V40H7.56v3.67c0 .585-.33 1.118-.852 1.38l-3.609 1.804a3.082 3.082 0 0 0-1.704 2.756V64.8c0 .912.27 1.805.777 2.564L3.7 69.657c.506.76.777 1.652.777 2.564v6.306h12.328v-6.306c0-.912.27-1.805.777-2.564l1.529-2.294c.506-.76.777-1.652.777-2.564V49.61c0-1.167-.66-2.234-1.704-2.756z"/><path d="M3.7 69.657c.507.76.777 1.652.777 2.564v.142h1.541V52.329c0-.97-.456-1.884-1.233-2.466L2.021 47.79a3.054 3.054 0 0 0-.626 1.82V64.8c0 .913.27 1.805.777 2.564L3.7 69.657zm13.882 0a4.622 4.622 0 0 0-.776 2.564v.142h-1.541V52.329c0-.97.457-1.884 1.233-2.466l2.764-2.073c.387.521.626 1.147.626 1.82V64.8c0 .913-.27 1.805-.777 2.564l-1.529 2.294z" fill="#00AAF0"/><path fill="#7F8499" d="M4.478 69.28h12.329v9.247H4.478z"/><path fill="#707487" d="M10.642 72.363a.77.77 0 0 0-.77.77v5.394h1.54v-5.394a.77.77 0 0 0-.77-.77z"/><path fill="#00AAF0" d="M9.872 47.706h1.541v21.576H9.872z"/><path fill="#E6AF78" d="M10.642 47.705a3.082 3.082 0 0 1-3.082-3.082V40h6.164v4.623a3.082 3.082 0 0 1-3.082 3.082z"/><path fill="#F0C087" d="M10.642 41.541a6.164 6.164 0 0 1-6.164-6.164v-3.082A4.623 4.623 0 0 1 9.1 27.67h3.082a4.623 4.623 0 0 1 4.623 4.624v3.082a6.165 6.165 0 0 1-6.164 6.164z"/><path fill="#E6AF78" d="M9.1 35.377v-3.082a4.614 4.614 0 0 1 3.853-4.546 4.594 4.594 0 0 0-.77-.078H9.1a4.623 4.623 0 0 0-4.623 4.624v3.082a6.164 6.164 0 0 0 6.164 6.164c.819 0 1.597-.167 2.311-.457a6.159 6.159 0 0 1-3.852-5.707z"/><path fill="#694B4B" d="M4.478 32.295s4.623 1.54 12.328 1.54v-1.54a4.623 4.623 0 0 0-4.623-4.624H9.101a4.623 4.623 0 0 0-4.623 4.624z"/><path fill="#5A4146" d="M9.1 32.295a4.614 4.614 0 0 1 3.853-4.546 4.594 4.594 0 0 0-.77-.078H9.1a4.623 4.623 0 0 0-4.623 4.624s1.657.548 4.623.99v-.99z"/><path fill="#AFB9D2" d="M42.842 46.854l-3.609-1.805a1.54 1.54 0 0 1-.852-1.378V40h-6.164v3.67c0 .585-.33 1.118-.852 1.38l-3.608 1.804a3.082 3.082 0 0 0-1.704 2.756V64.8c0 .912.27 1.805.776 2.564l1.53 2.294c.506.76.776 1.652.776 2.564v6.306h12.329v-6.306c0-.912.27-1.805.776-2.564l1.53-2.294c.506-.76.776-1.652.776-2.564V49.61c0-1.167-.66-2.234-1.704-2.756z"/><path d="M28.359 69.657c.506.76.776 1.652.776 2.564v.142h1.541V52.329c0-.97-.456-1.884-1.233-2.466L26.68 47.79a3.054 3.054 0 0 0-.626 1.82V64.8c0 .913.27 1.805.777 2.564l1.529 2.294zm13.882 0a4.622 4.622 0 0 0-.777 2.564v.142h-1.54V52.329c0-.97.456-1.884 1.232-2.466l2.764-2.073c.387.521.626 1.147.626 1.82V64.8c0 .913-.27 1.805-.776 2.564l-1.53 2.294z" fill="#959CB5"/><path fill="#707487" d="M29.135 69.28h12.329v9.247H29.135z"/><path fill="#5B5D6E" d="M35.3 72.363a.77.77 0 0 0-.771.77v5.394h1.54v-5.394a.77.77 0 0 0-.77-.77z"/><path fill="#959CB5" d="M34.528 47.706h1.541v21.576h-1.541z"/><path fill="#E6AF78" d="M35.3 47.705a3.082 3.082 0 0 1-3.083-3.082V40h6.164v4.623a3.082 3.082 0 0 1-3.082 3.082z"/><path fill="#F0C087" d="M35.3 41.541a6.164 6.164 0 0 1-6.165-6.164v-3.082a4.623 4.623 0 0 1 4.623-4.624h3.082a4.623 4.623 0 0 1 4.624 4.624v3.082a6.164 6.164 0 0 1-6.165 6.164z"/><path fill="#E6AF78" d="M33.758 35.377v-3.082a4.614 4.614 0 0 1 3.853-4.546 4.594 4.594 0 0 0-.77-.078h-3.083a4.623 4.623 0 0 0-4.623 4.624v3.082a6.164 6.164 0 0 0 6.164 6.164c.819 0 1.597-.167 2.312-.457a6.16 6.16 0 0 1-3.853-5.707z"/><path fill="#694B4B" d="M29.135 32.295s4.623 1.54 12.329 1.54v-1.54a4.623 4.623 0 0 0-4.624-4.624h-3.082a4.623 4.623 0 0 0-4.623 4.624z"/><path fill="#5A4146" d="M33.758 32.295a4.614 4.614 0 0 1 3.853-4.546 4.594 4.594 0 0 0-.77-.078h-3.083a4.623 4.623 0 0 0-4.623 4.624s1.657.548 4.623.99v-.99z"/><path fill="#FF507D" d="M67.5 46.854l-3.61-1.805a1.54 1.54 0 0 1-.851-1.378V40h-6.165v3.67c0 .585-.33 1.118-.851 1.38l-3.609 1.804a3.082 3.082 0 0 0-1.704 2.756V64.8c0 .912.27 1.805.777 2.564l1.529 2.294c.506.76.776 1.652.776 2.564v6.306h12.329v-6.306c0-.912.27-1.805.776-2.564l1.53-2.294c.506-.76.776-1.652.776-2.564V49.61c0-1.167-.66-2.234-1.704-2.756z"/><path d="M53.016 69.657c.506.76.777 1.652.777 2.564v.142h1.54V52.329c0-.97-.456-1.884-1.232-2.466l-2.765-2.073a3.054 3.054 0 0 0-.626 1.82V64.8c0 .913.27 1.805.777 2.564l1.529 2.294zm13.882 0a4.622 4.622 0 0 0-.777 2.564v.142h-1.54V52.329c0-.97.456-1.884 1.232-2.466l2.765-2.073c.386.521.626 1.147.626 1.82V64.8c0 .913-.27 1.805-.777 2.564l-1.53 2.294z" fill="#D23C69"/><path fill="#7F8499" d="M53.792 69.28h12.329v9.247H53.792z"/><path fill="#707487" d="M59.957 72.363a.77.77 0 0 0-.771.77v5.394h1.541v-5.394a.77.77 0 0 0-.77-.77z"/><path fill="#D23C69" d="M59.185 47.706h1.541v21.576h-1.541z"/><path fill="#E6AF78" d="M59.956 47.705a3.082 3.082 0 0 1-3.082-3.082V40h6.165v4.623a3.082 3.082 0 0 1-3.083 3.082z"/><path fill="#F0C087" d="M59.957 41.541a6.164 6.164 0 0 1-6.165-6.164v-3.082a4.623 4.623 0 0 1 4.624-4.624h3.082a4.623 4.623 0 0 1 4.623 4.624v3.082a6.165 6.165 0 0 1-6.164 6.164z"/><path fill="#E6AF78" d="M58.415 35.377v-3.082a4.614 4.614 0 0 1 3.853-4.546 4.594 4.594 0 0 0-.77-.078h-3.083a4.623 4.623 0 0 0-4.623 4.624v3.082a6.164 6.164 0 0 0 6.164 6.164c.82 0 1.597-.167 2.312-.457a6.16 6.16 0 0 1-3.853-5.707z"/><path fill="#694B4B" d="M53.792 32.295s4.623 1.54 12.329 1.54v-1.54a4.623 4.623 0 0 0-4.623-4.624h-3.083a4.623 4.623 0 0 0-4.623 4.624z"/><path fill="#5A4146" d="M58.415 32.295a4.614 4.614 0 0 1 3.853-4.546 4.594 4.594 0 0 0-.77-.078h-3.083a4.623 4.623 0 0 0-4.623 4.624s1.657.548 4.623.99v-.99z"/><path fill="#C7CFE2" d="M92.157 46.854l-3.61-1.805a1.54 1.54 0 0 1-.85-1.378V40h-6.165v3.67c0 .585-.33 1.118-.852 1.38l-3.609 1.804a3.082 3.082 0 0 0-1.703 2.756V64.8c0 .912.27 1.805.776 2.564l1.53 2.294c.506.76.776 1.652.776 2.564v6.306h12.329v-6.306c0-.912.27-1.805.776-2.564l1.53-2.294c.506-.76.776-1.652.776-2.564V49.61c0-1.167-.66-2.234-1.704-2.756z"/><path d="M77.673 69.657c.507.76.777 1.652.777 2.564v.142h1.54V52.329c0-.97-.456-1.884-1.232-2.466l-2.765-2.073a3.054 3.054 0 0 0-.625 1.82V64.8c0 .913.27 1.805.776 2.564l1.53 2.294zm13.882 0a4.622 4.622 0 0 0-.777 2.564v.142h-1.54V52.329c0-.97.456-1.884 1.232-2.466l2.765-2.073c.386.521.626 1.147.626 1.82V64.8c0 .913-.27 1.805-.777 2.564l-1.529 2.294z" fill="#AFB9D2"/><path fill="#7F8499" d="M78.45 69.28h12.329v9.247H78.45z"/><path fill="#707487" d="M84.614 72.363a.77.77 0 0 0-.77.77v5.394h1.54v-5.394a.77.77 0 0 0-.77-.77z"/><path fill="#AFB9D2" d="M83.844 47.706h1.541v21.576h-1.541z"/><path fill="#E6AF78" d="M84.614 47.705a3.082 3.082 0 0 1-3.082-3.082V40h6.164v4.623a3.082 3.082 0 0 1-3.082 3.082z"/><path fill="#F0C087" d="M84.614 41.541a6.164 6.164 0 0 1-6.164-6.164v-3.082a4.623 4.623 0 0 1 4.623-4.624h3.082a4.623 4.623 0 0 1 4.623 4.624v3.082a6.165 6.165 0 0 1-6.164 6.164z"/><path fill="#E6AF78" d="M83.073 35.377v-3.082a4.614 4.614 0 0 1 3.853-4.546 4.594 4.594 0 0 0-.771-.078h-3.082a4.623 4.623 0 0 0-4.624 4.624v3.082a6.164 6.164 0 0 0 6.165 6.164c.819 0 1.597-.167 2.311-.457a6.159 6.159 0 0 1-3.852-5.707z"/><path fill="#694B4B" d="M78.45 32.295s4.623 1.54 12.328 1.54v-1.54a4.623 4.623 0 0 0-4.623-4.624h-3.082a4.623 4.623 0 0 0-4.623 4.624z"/><path fill="#5A4146" d="M83.073 32.295a4.614 4.614 0 0 1 3.853-4.546 4.594 4.594 0 0 0-.771-.078h-3.082a4.623 4.623 0 0 0-4.624 4.624s1.658.548 4.624.99v-.99z"/><path fill="#000" d="M92.78 45.606L89.173 43.8a.145.145 0 0 1-.08-.13v-2.208a7.553 7.553 0 0 0 3.081-6.086v-3.082c0-3.32-2.7-6.02-6.018-6.02h-3.082c-.05 0-.098.004-.146.005v-2.868a4.453 4.453 0 0 0-2.475-4.005l-3.609-1.804a.145.145 0 0 1-.08-.13v-2.208a7.553 7.553 0 0 0 3.081-6.087V6.096c0-3.319-2.7-6.018-6.018-6.018h-3.082a6.025 6.025 0 0 0-6.018 6.018v3.082a7.553 7.553 0 0 0 3.082 6.087v2.208c0 .055-.031.105-.081.13l-3.609 1.804a4.453 4.453 0 0 0-2.475 4.005v2.868c-.048-.001-.097-.004-.146-.004h-3.082c-.048 0-.097.003-.145.004v-2.868a4.453 4.453 0 0 0-2.475-4.005l-3.609-1.804a.145.145 0 0 1-.08-.13v-2.208a7.553 7.553 0 0 0 3.082-6.087V6.096c0-3.319-2.7-6.018-6.02-6.018h-3.081a6.025 6.025 0 0 0-6.019 6.018v3.082a7.553 7.553 0 0 0 3.082 6.087v2.208c0 .055-.03.105-.08.13l-3.609 1.804a4.453 4.453 0 0 0-2.475 4.005v2.868c-.049-.001-.097-.004-.146-.004h-3.082c-.049 0-.097.003-.146.004v-2.868a4.453 4.453 0 0 0-2.475-4.005l-3.608-1.804a.145.145 0 0 1-.081-.13v-2.208a7.553 7.553 0 0 0 3.082-6.087V6.096c0-3.319-2.7-6.018-6.019-6.018H21.43a6.026 6.026 0 0 0-6.018 6.018v3.082a7.553 7.553 0 0 0 3.082 6.087v2.208c0 .055-.031.105-.08.13l-3.61 1.804a4.453 4.453 0 0 0-2.475 4.005v2.868c-.048-.001-.097-.004-.145-.004H9.1a6.026 6.026 0 0 0-6.019 6.019v3.082a7.553 7.553 0 0 0 3.082 6.086v2.208c0 .056-.03.105-.08.13l-3.609 1.805A4.453 4.453 0 0 0 0 49.61V64.8a6 6 0 0 0 1.01 3.338l1.53 2.294c.355.532.542 1.151.542 1.79v6.306a1.395 1.395 0 0 0 2.79 0v-6.306a6 6 0 0 0-1.01-3.338l-1.53-2.294a3.218 3.218 0 0 1-.541-1.79V49.61c0-.643.357-1.22.932-1.508l2.534-1.267 2.308 2.308a2.926 2.926 0 0 0 2.077.86c.752 0 1.504-.287 2.076-.86l2.309-2.308 2.534 1.267c.575.287.932.865.932 1.508V64.8c0 .639-.188 1.258-.542 1.79l-1.53 2.294a6 6 0 0 0-1.01 3.338v6.306a1.395 1.395 0 0 0 2.79 0v-6.306c0-.639.188-1.258.543-1.79l1.529-2.294a6 6 0 0 0 1.01-3.338V49.61a4.453 4.453 0 0 0-2.474-4.004L15.2 43.8a.145.145 0 0 1-.08-.13v-2.208a7.553 7.553 0 0 0 3.081-6.086v-3.082a6.022 6.022 0 0 0-3.082-5.251v-3.632c0-.643.357-1.221.933-1.509l2.533-1.267 2.31 2.31a2.928 2.928 0 0 0 2.076.858c.752 0 1.503-.287 2.076-.859l2.309-2.309 2.533 1.267c.576.288.933.866.933 1.509v3.632a6.022 6.022 0 0 0-3.082 5.25v3.082a7.553 7.553 0 0 0 3.082 6.087v2.208c0 .055-.03.105-.08.13l-3.61 1.804a4.453 4.453 0 0 0-2.475 4.005v15.188c0 1.192.35 2.347 1.011 3.339l1.53 2.294c.354.532.542 1.15.542 1.79v6.306a1.395 1.395 0 0 0 2.79 0V72.22c0-1.192-.35-2.346-1.01-3.338l-1.53-2.294a3.218 3.218 0 0 1-.542-1.79V49.61c0-.643.357-1.22.933-1.508l2.533-1.267 2.31 2.308a2.926 2.926 0 0 0 2.076.86c.751 0 1.503-.287 2.076-.86l2.309-2.308 2.533 1.267c.575.287.933.865.933 1.508V64.8c0 .64-.188 1.258-.542 1.79l-1.53 2.294a6 6 0 0 0-1.01 3.339v6.305a1.395 1.395 0 0 0 2.79 0v-6.306c0-.639.188-1.258.542-1.79l1.53-2.294a6 6 0 0 0 1.01-3.338V49.61a4.453 4.453 0 0 0-2.475-4.004L39.858 43.8a.145.145 0 0 1-.081-.13v-2.208a7.553 7.553 0 0 0 3.082-6.086v-3.082a6.022 6.022 0 0 0-3.082-5.251v-3.632c0-.643.357-1.221.932-1.509l2.534-1.267 2.309 2.31a2.927 2.927 0 0 0 2.076.858c.752 0 1.504-.287 2.077-.86l2.308-2.308 2.534 1.267c.575.288.933.866.933 1.509v3.632a6.022 6.022 0 0 0-3.082 5.25v3.083a7.553 7.553 0 0 0 3.082 6.086v2.208c0 .055-.031.105-.081.13l-3.609 1.804a4.453 4.453 0 0 0-2.475 4.005v15.188c0 1.193.35 2.347 1.011 3.339l1.53 2.294c.354.532.542 1.151.542 1.79v6.306a1.395 1.395 0 1 0 2.79 0v-6.306a6 6 0 0 0-1.01-3.338l-1.53-2.294a3.218 3.218 0 0 1-.542-1.79V49.61c0-.643.357-1.22.933-1.508l2.533-1.267 2.309 2.308a2.927 2.927 0 0 0 2.076.859c.752 0 1.504-.286 2.076-.859l2.309-2.308 2.534 1.267c.575.287.932.865.932 1.508V64.8c0 .639-.187 1.258-.542 1.79l-1.53 2.294a6 6 0 0 0-1.01 3.339v6.305a1.395 1.395 0 1 0 2.79 0v-6.306c0-.639.188-1.258.543-1.79l1.529-2.294a6 6 0 0 0 1.01-3.338V49.61a4.453 4.453 0 0 0-2.474-4.004L64.515 43.8a.145.145 0 0 1-.08-.13v-2.208a7.553 7.553 0 0 0 3.081-6.086v-3.082a6.022 6.022 0 0 0-3.082-5.251v-3.632c0-.643.358-1.221.933-1.51l2.533-1.266 2.31 2.309a2.927 2.927 0 0 0 2.076.858c.751 0 1.504-.286 2.076-.858l2.309-2.309 2.533 1.267c.575.287.933.866.933 1.509v3.631a6.022 6.022 0 0 0-3.082 5.251v3.082a7.553 7.553 0 0 0 3.082 6.087v2.207c0 .056-.031.106-.081.13l-3.609 1.805a4.453 4.453 0 0 0-2.475 4.005v15.188c0 1.192.35 2.347 1.011 3.339l1.53 2.294c.354.531.542 1.15.542 1.79v6.306a1.395 1.395 0 1 0 2.79 0V72.22c0-1.192-.35-2.346-1.01-3.338l-1.53-2.294a3.218 3.218 0 0 1-.542-1.79V49.61c0-.643.357-1.22.933-1.508l2.533-1.267 2.309 2.308a2.927 2.927 0 0 0 2.076.859c.752 0 1.504-.286 2.076-.859L89 46.835l2.533 1.267c.575.287.932.865.932 1.508V64.8c0 .639-.187 1.258-.542 1.79l-1.53 2.294a6 6 0 0 0-1.01 3.339v6.305a1.395 1.395 0 1 0 2.79 0v-6.306c0-.639.188-1.258.543-1.79l1.529-2.294a6 6 0 0 0 1.011-3.338V49.61a4.453 4.453 0 0 0-2.475-4.004zm-80.451-2.67v.735c0 .543.147 1.058.412 1.503l-1.996 1.996a.146.146 0 0 1-.206 0l-1.996-1.996a2.93 2.93 0 0 0 .412-1.503v-.734h3.374zm3.082-7.56c0 2.63-2.14 4.77-4.77 4.77a4.774 4.774 0 0 1-4.768-4.77v-3.081A3.232 3.232 0 0 1 9.1 29.067h3.082a3.232 3.232 0 0 1 3.228 3.228v3.082zm2.79-29.28a3.232 3.232 0 0 1 3.228-3.228h3.083a3.232 3.232 0 0 1 3.228 3.228v3.082c0 2.63-2.14 4.77-4.77 4.77a4.774 4.774 0 0 1-4.768-4.77V6.096zm4.873 14.876a.146.146 0 0 1-.206 0l-1.996-1.996a2.93 2.93 0 0 0 .412-1.504v-.734h3.373v.734c0 .543.148 1.059.413 1.503l-1.996 1.997zm13.912 21.964v.735c0 .543.147 1.058.412 1.503l-1.996 1.996a.146.146 0 0 1-.206 0L33.2 45.174a2.93 2.93 0 0 0 .412-1.503v-.735h3.374zm3.082-7.56c0 2.63-2.14 4.77-4.769 4.77-2.63 0-4.769-2.14-4.769-4.77v-3.081a3.232 3.232 0 0 1 3.228-3.228h3.082a3.232 3.232 0 0 1 3.228 3.228v3.082zm2.791-29.28a3.232 3.232 0 0 1 3.228-3.228h3.082a3.232 3.232 0 0 1 3.228 3.228v3.082c0 2.63-2.14 4.77-4.77 4.77a4.774 4.774 0 0 1-4.768-4.77V6.096zm4.872 14.876a.146.146 0 0 1-.206 0l-1.996-1.996a2.93 2.93 0 0 0 .412-1.504v-.734h3.374v.734c0 .543.147 1.059.412 1.503l-1.996 1.997zm13.912 21.964v.735c0 .543.148 1.058.413 1.503L60.06 47.17a.146.146 0 0 1-.206 0l-1.996-1.996c.264-.445.412-.96.412-1.504v-.734h3.373zm3.083-7.56c0 2.63-2.14 4.77-4.77 4.77a4.774 4.774 0 0 1-4.768-4.77v-3.081a3.232 3.232 0 0 1 3.227-3.228h3.082a3.232 3.232 0 0 1 3.229 3.228v3.082zm2.79-29.28a3.232 3.232 0 0 1 3.228-3.228h3.082a3.232 3.232 0 0 1 3.228 3.228v3.082c0 2.63-2.139 4.77-4.769 4.77a4.774 4.774 0 0 1-4.769-4.77V6.096zm4.872 14.876a.146.146 0 0 1-.206 0l-1.996-1.996c.265-.445.413-.96.413-1.504v-.734h3.373v.734c0 .543.147 1.059.412 1.504l-1.996 1.996zm7.457 11.323a3.232 3.232 0 0 1 3.228-3.228h3.082a3.232 3.232 0 0 1 3.228 3.228v3.082c0 2.63-2.14 4.768-4.769 4.768a4.774 4.774 0 0 1-4.769-4.768v-3.082zm4.872 14.875a.146.146 0 0 1-.206 0l-1.996-1.996c.265-.445.412-.96.412-1.503v-.735h3.374v.735c0 .542.147 1.058.412 1.503l-1.996 1.996z"/></g></svg>