<svg width="60" height="58" xmlns="http://www.w3.org/2000/svg"><g fill="none" fill-rule="evenodd"><path d="M25.038 52.9c-.365-.042-.647-.234-.902-.453-.648-.562-1.185-1.214-1.536-1.995-.117-.26-.29-.336-.565-.33-.6.021-1.192.014-1.791.008-.765-.007-1.247-.487-1.247-1.241v-7.85c0-.748.516-1.262 1.281-1.262 1.24-.007 2.48 0 3.72 0h11.333c1.012 0 1.467.453 1.467 1.46 0 2.49-.028 4.985.014 7.473.013.85-.551 1.454-1.468 1.44-3.479-.034-6.958-.014-10.436-.014-.09 0-.186-.006-.276 0-.413.028-.558.192-.517.59.076.672.31 1.282.737 1.817.083.089.2.178.186.356z" fill="#65C2E5"/><path d="M38.313 34.793a1.595 1.595 0 01-1.143-.919c-.255-.569-.634-.699-1.185-.623-.145.02-.296.006-.448 0-.461-.021-.75-.302-.75-.761a495.334 495.334 0 010-4.525c0-.46.289-.748.757-.748 2.962-.006 5.918-.006 8.88 0 .462 0 .744.295.744.761.007 1.495.007 2.99 0 4.491 0 .507-.296.782-.834.782h-6.02c-.538 0-.607.089-.476.61.041.178.117.343.2.507.076.144.186.281.275.425zM48.909 17.043c-.172.048-.276-.054-.386-.13-.22-.171-.468-.343-.558-.596-.22-.597-.655-.638-1.192-.61-.689.04-.847-.151-.847-.837v-3.496c0-.535.213-.748.75-.748h7.262c.53 0 .75.22.75.755v3.599c0 .535-.206.733-.757.733h-4.988c-.496 0-.558.09-.44.57.075.287.247.514.406.76zM37.845 21.191c.482.117.772.466.978.87.11.22.241.303.476.282.213-.02.434-.014.654 0 .31.02.524.213.524.528.007 1.152.013 2.31 0 3.462-.007.357-.241.542-.655.542h-6.441c-.503 0-.689-.185-.689-.686 0-1.063-.007-2.125 0-3.188 0-.473.186-.658.668-.658h4.444c.434 0 .489-.075.372-.487a1.705 1.705 0 00-.145-.35c-.041-.11-.117-.212-.186-.315z" fill="#ABD03A"/><path d="M53.566 37.542c-.448-.116-.71-.425-.896-.795-.103-.212-.227-.295-.475-.288-1.178.007-1.206-.027-1.206-1.213v-2.503c0-.596.186-.788.779-.788h6.234c.538 0 .703.164.703.685v3.086c0 .562-.165.733-.73.733h-4.272c-.496 0-.558.09-.385.57.062.177.165.342.248.513zM34.573 6.11c-.455-.09-.69-.44-.875-.803-.152-.288-.33-.37-.648-.37-1.026.02-1.026.007-1.026-1.028V1.097c0-.432.193-.624.634-.624h6.406c.455 0 .675.22.675.672a235.42 235.42 0 010 3.12c0 .5-.186.671-.688.671h-4.168c-.124 0-.248.014-.38.02-.247.021-.295.165-.254.385.048.274.227.493.33.747l-.006.02zm-1.288 27.526c.482.123.744.466.943.85.117.219.248.294.483.274.179-.014.365-.007.55 0 .393.007.62.22.62.617.008 1.097.008 2.194 0 3.29 0 .35-.206.556-.557.563-2.205.007-4.41.007-6.614 0-.372 0-.544-.178-.544-.555-.007-1.111-.007-2.215 0-3.326 0-.404.2-.582.634-.582h4.305c.545 0 .648-.151.434-.658-.068-.165-.172-.316-.254-.473zM20.25 35.506c.51-.432 1.02-.87 1.522-1.302h5.022c.51 0 .675.164.675.678v2.743c0 .582-.179.76-.75.76h-3.955c-.4 0-.462.083-.358.467.027.11.076.212.13.315.049.09.118.165.145.281a1.151 1.151 0 01-.75-.624c-.187-.404-.455-.459-.841-.445-.675.02-.834-.151-.834-.816 0-.686 0-1.371-.006-2.057zm26.412 13.732c-.407-.137-.606-.397-.758-.678-.117-.22-.255-.302-.503-.302-.875.014-.902-.02-.902-.898v-2.297c0-.404.144-.562.558-.562a691.17 691.17 0 015.332 0c.372 0 .558.164.565.542.014.89.014 1.782 0 2.673-.007.391-.193.549-.593.549-1.185.007-2.363 0-3.548 0-.489 0-.564.116-.372.569.056.116.124.233.22.404z" fill="#65C2E5"/><path d="M10.999 42.808c.206-.823.413-1.639.716-2.434 1.536 0 3.073.007 4.609.007.53 0 .634.096.634.61v2.296c0 .432-.117.549-.558.549h-3.17c-.55 0-.626.123-.371.617.048.09.096.171.158.274-.317-.096-.523-.253-.716-.637-.11-.206-.241-.281-.462-.254-.11.014-.227.007-.344 0-.345-.014-.476-.144-.49-.48 0-.185 0-.37-.006-.548z" fill="#ABD03A"/><path d="M30.894 10.914a1.008 1.008 0 01-.661-.562c-.124-.247-.29-.322-.545-.288a1.16 1.16 0 01-.344-.007c-.207-.04-.351-.157-.351-.397V7.192c0-.26.165-.398.42-.398 1.57-.007 3.141-.007 4.719 0 .31 0 .448.192.448.494V9.55c0 .377-.138.514-.517.521-.999.007-1.998 0-2.997 0-.516 0-.578.103-.33.57.027.068.068.13.158.273zm8.639 42.294a.997.997 0 01-.634-.549c-.09-.185-.214-.246-.406-.226a2.33 2.33 0 01-.38 0c-.268-.02-.426-.164-.426-.439a139.3 139.3 0 010-2.4c0-.273.158-.431.427-.431 1.57-.007 3.141-.007 4.712 0 .303 0 .448.171.44.487-.013.754 0 1.508-.006 2.262 0 .398-.131.521-.544.521h-2.963c-.482 0-.55.103-.344.535.048.082.09.164.124.24zM28.4 54.928a.862.862 0 01-.592-.493c-.145-.295-.352-.357-.662-.35-.537.02-.626-.075-.626-.603v-2.091c0-.425.103-.535.516-.535h4.581c.372 0 .483.096.483.46.007.767.007 1.528 0 2.296 0 .343-.131.473-.483.473-1.02.007-2.046 0-3.065 0-.462 0-.524.096-.324.528.048.09.096.172.172.316z" fill="#65C2E5"/><path d="M26.492 27.636c.524-1.11.985-2.249 1.46-3.373 1.24.007 2.474.007 3.714.013.51 0 .627.117.627.624v2.29c0 .405-.131.535-.538.535H28.56c-.53 0-.613.144-.359.63.042.076.131.138.118.24-.359-.047-.524-.335-.669-.603-.117-.22-.255-.274-.482-.267-.234-.007-.468.048-.675-.09zm23.32-4.943c-.125-.384-.366-.549-.793-.508-.4.041-.517-.102-.524-.493 0-.706-.006-1.42 0-2.126 0-.37.124-.486.503-.486h4.34c.4 0 .517.123.517.507v2.091c0 .39-.124.514-.517.514-.95.007-1.908 0-2.859 0-.468 0-.537.117-.316.549.034.068.075.137.137.233-.255.007-.33-.22-.489-.281zm-8.04-7.165c-.33-.102-.496-.308-.613-.534-.11-.213-.248-.281-.483-.281-.66.013-.723-.055-.723-.72v-1.851c0-.44.117-.556.544-.556h4.265c.434 0 .55.117.55.542v2.057c0 .404-.123.528-.537.528-.95.006-1.901 0-2.852 0-.44 0-.503.102-.31.5.035.096.083.178.159.315zm7.213 18.593c.055-.11.062-.144.082-.171.11-.178.262-.377.159-.562-.097-.179-.331-.083-.51-.083-.861-.006-1.722 0-2.584-.006-.4 0-.51-.11-.516-.508 0-.665-.007-1.323 0-1.988 0-.37.124-.487.503-.487h4.133c.372 0 .482.124.49.5.006.652 0 1.303 0 1.955 0 .425-.104.548-.524.52-.317-.02-.538.049-.682.357-.09.199-.269.336-.551.473zm-7.344 6.472c.406-.864.31-.781-.469-.775-.806.007-1.605.007-2.41 0-.414 0-.524-.116-.531-.527v-1.92c0-.418.11-.542.523-.542 1.364 0 2.728-.007 4.092 0 .386 0 .496.11.503.487 0 .686-.013 1.371-.007 2.057 0 .329-.158.48-.461.439-.358-.042-.6.061-.765.397a.688.688 0 01-.475.384zm13.406-25.455c.234.082.379.26.482.459.11.226.262.302.51.295.606-.02.647.04.647.63v1.852c0 .404-.09.493-.475.493H52.01c-.38 0-.476-.103-.482-.493v-1.989c0-.397.103-.5.516-.5h2.721c.455 0 .524-.103.324-.521-.027-.062-.069-.124-.096-.178.02-.014.041-.035.055-.048zm-14.24 29.26c.283-.74.283-.74-.544-.74h-2.266c-.428 0-.53-.103-.53-.521 0-.652.006-1.303 0-1.954-.008-.316.13-.46.454-.46 1.364.007 2.728.007 4.092 0 .317 0 .468.138.468.446v2.022c0 .316-.158.487-.461.46-.352-.034-.606.048-.772.397a.68.68 0 01-.44.35z" fill="#ABD03A"/><path d="M43.487 7.685c-.227-.137-.413-.294-.517-.514-.103-.212-.248-.254-.461-.254-.613.007-.64-.02-.64-.637V4.463c0-.35.123-.48.468-.48 1.343-.007 2.686 0 4.03 0 .372 0 .516.117.523.48.014.672.014 1.35 0 2.023-.007.301-.172.445-.489.438-.882-.013-1.77-.007-2.652 0-.475 0-.544.117-.324.542.035.048.11.09.062.22z" fill="#65C2E5"/><path d="M32.733 29.809c.22.075.366.247.462.439.103.22.248.28.482.274.593-.014.64.048.64.644v1.817c0 .364-.11.466-.474.466h-4.058c-.358 0-.475-.116-.475-.473a95.635 95.635 0 010-1.988c0-.35.124-.466.482-.473.895-.007 1.79 0 2.68 0 .427 0 .482-.082.303-.473a1.47 1.47 0 00-.097-.178c.021-.02.035-.041.055-.055z" fill="#ABD03A"/><path d="M55.805 27.752c.22.076.358.254.454.439.11.213.262.274.496.267.572-.013.627.055.627.617 0 .617-.007 1.234 0 1.851 0 .309-.138.467-.454.467h-4.093c-.337 0-.475-.137-.475-.487a92.365 92.365 0 010-1.954c0-.363.138-.494.496-.494.882-.006 1.764 0 2.645 0 .483 0 .517-.048.331-.48-.027-.061-.041-.13-.062-.191.02-.014.028-.021.035-.035zM29.799 3.702c.069-.116.11-.171.137-.233.207-.39.131-.528-.31-.528h-2.61c-.42 0-.503-.082-.503-.5 0-.665.007-1.324-.007-1.989C26.499.123 26.65 0 26.96 0h4.092c.29 0 .448.117.441.432-.007.692-.007 1.392 0 2.084.007.295-.144.439-.413.411-.365-.034-.627.055-.8.405a.665.665 0 01-.481.37zm25.048 38.132c.393-.925.186-.768-.503-.768h-2.342c-.4 0-.49-.089-.49-.48 0-.665.008-1.323-.006-1.988-.007-.322.124-.466.44-.466h4.1c.29 0 .448.13.448.439 0 .699-.007 1.391 0 2.09 0 .254-.118.426-.359.398-.427-.048-.716.09-.91.473-.061.117-.192.227-.378.302z" fill="#65C2E5"/><path d="M33.96 18.284c-.352.755-.345.761.447.761h2.412c.378 0 .489.11.489.494.007.638.007 1.282 0 1.92 0 .39-.11.493-.49.493h-4.064c-.379 0-.461-.089-.468-.466-.007-.665.007-1.323 0-1.988-.007-.322.144-.48.461-.446.338.041.593-.034.737-.377.076-.171.235-.308.476-.39zm8.535 6.568c-.324-.157-.496-.329-.6-.541-.103-.213-.247-.254-.46-.254-.586.014-.635-.041-.635-.617 0-.597.007-1.186 0-1.783-.006-.315.138-.459.455-.459h3.996c.358 0 .468.117.475.473.007.638.007 1.282 0 1.92 0 .356-.11.466-.482.466h-2.618c-.434 0-.49.09-.31.473.034.09.083.165.18.322zm14.68-2.344c.283-.597.4-.727-.392-.7-.758.02-1.516 0-2.274.007-.316.007-.461-.116-.461-.445.014-.618.014-1.235 0-1.852-.007-.329.151-.445.461-.445 1.261.007 2.522.007 3.79 0 .296 0 .454.116.454.425v1.885c0 .274-.117.453-.413.418-.352-.04-.586.055-.744.384a.543.543 0 01-.42.323zm-20.632-7.09a.732.732 0 01-.406-.376c-.104-.227-.27-.268-.496-.26-.414.013-.49-.07-.49-.467 0-.535.007-1.076 0-1.611-.006-.288.118-.418.414-.418 1.157.006 2.321.006 3.479 0 .296 0 .406.144.406.425a65.5 65.5 0 000 1.645c.007.302-.13.439-.434.432-.723-.007-1.447 0-2.17 0-.496 0-.53.062-.317.5.014.028.062.062.014.13zm5.394 21.11c.02-.055.048-.103.062-.158.124-.336.097-.377-.255-.377-.744 0-1.488-.007-2.232.007-.324.007-.461-.124-.455-.446.007-.52.007-1.049 0-1.57-.006-.322.131-.445.455-.445 1.11.006 2.225.006 3.334 0 .304 0 .448.102.441.418a67.702 67.702 0 000 1.673c0 .233-.096.39-.344.363-.317-.041-.544.048-.682.356a.49.49 0 01-.276.247.246.246 0 00-.048-.068zm4.719.425c.248-.638.248-.638-.434-.638h-1.929c-.386 0-.475-.082-.475-.452 0-.528.007-1.05 0-1.577-.007-.302.124-.432.434-.432 1.123.007 2.246.007 3.368 0 .31 0 .441.123.435.425a62.8 62.8 0 000 1.611c0 .281-.104.446-.407.418-.276-.027-.475.035-.606.309a.595.595 0 01-.386.336zm5.16-9.064c.234-.61.234-.61-.434-.61-.655 0-1.309-.007-1.963 0-.324.007-.455-.13-.448-.452.014-.528.014-1.05 0-1.577-.007-.302.103-.439.42-.439 1.137.007 2.273.007 3.403 0 .276 0 .4.11.4.39-.007.57 0 1.139 0 1.715 0 .24-.124.384-.359.356-.33-.04-.53.076-.688.357-.056.116-.159.24-.331.26zm-5.532 14.075c.255-.624.255-.624-.406-.624-.662 0-1.33-.006-1.991 0-.303.007-.441-.11-.434-.418.013-.548.007-1.097.007-1.645 0-.274.11-.398.392-.398 1.144.007 2.294.007 3.438 0 .275 0 .392.124.386.398a68.258 68.258 0 000 1.68c0 .233-.083.397-.331.377-.33-.028-.565.048-.717.363-.048.116-.165.212-.344.267zm-31.558-3.846c.833-.226 1.68-.425 2.466-.802.565-.274 1.123-.562 1.68-.843.62.048.628.048.628.665 0 .562-.007 1.117 0 1.68.007.322-.145.452-.455.452-.834-.007-1.674 0-2.508 0-.461 0-.516.09-.296.514.028.048.055.096.11.185-.303-.061-.447-.267-.558-.473-.096-.178-.206-.233-.406-.233-.62.007-.655-.034-.655-.665 0-.164 0-.322-.006-.48z" fill="#ABD03A"/><path d="M45.347 27.382c.269-.63.269-.63-.393-.63-.626 0-1.26-.008-1.887.006-.31.007-.434-.116-.427-.425.014-.514.007-1.028 0-1.536-.007-.274.11-.397.386-.39 1.102.006 2.197.006 3.3 0 .261 0 .378.116.371.37-.007.548 0 1.097 0 1.638 0 .227-.11.357-.337.336-.303-.027-.524.048-.662.343-.055.123-.179.22-.35.288z" fill="#ABD03A"/><path d="M22.173 33.785c1.122-1.179 2.1-2.475 3.01-3.825.903 0 .923.02.923.918v2.331c0 .384-.179.576-.558.576-1.123.007-2.246 0-3.375 0zM35.75 18.648c-.042-.007-.104 0-.124-.028-.234-.274-.462-.534-.889-.493-.158.013-.213-.179-.213-.336v-1.467c0-.24.117-.35.358-.35 1.02.007 2.039.007 3.058 0 .27 0 .366.13.359.384-.007.466-.007.932 0 1.399.007.294-.138.41-.42.41-.593-.006-1.192 0-1.785 0-.544-.013-.544-.013-.344.48zm13.578 25.496c.034-.068.069-.137.096-.212.076-.192.007-.274-.2-.267-.606.006-1.212-.007-1.825.006-.31.007-.44-.11-.427-.418.014-.411.014-.823 0-1.234-.007-.295.124-.404.413-.404.896.007 1.791.007 2.68 0 .283 0 .427.096.42.397-.013.425-.013.844 0 1.269.007.274-.103.418-.385.39-.207-.02-.345.048-.441.24-.062.117-.173.206-.262.309a.238.238 0 00-.069-.076z" fill="#65C2E5"/><path d="M28.455 22.72c.062-.377.131-.754.29-1.11.881.006 1.763.02 2.645.006.31 0 .44.103.427.419-.014.397-.007.795 0 1.2 0 .164-.055.335-.227.322-.338-.035-.524.137-.69.383-.027.042-.082.069-.137.117-.069-.103.02-.158.041-.22.076-.198.007-.267-.2-.26-.55.007-1.102.007-1.646 0-.42 0-.468-.048-.475-.473a8.38 8.38 0 01-.028-.384zM44.706 8.638c.083-.013.138.041.173.09.158.246.337.431.682.383.144-.02.2.124.2.26v1.365c0 .199-.097.288-.297.288H42.75c-.214 0-.31-.11-.31-.315V9.413c0-.233.124-.315.344-.315.517.006 1.034 0 1.544 0 .502 0 .502 0 .378-.46zm-12.482 9.934c.055-.116.069-.15.09-.192.13-.24.082-.35-.221-.342-.565.013-1.123-.007-1.688.006-.283.007-.393-.096-.386-.383a23.22 23.22 0 000-1.2c-.007-.247.097-.357.345-.357.881.007 1.763.007 2.652 0 .227 0 .337.103.33.33-.006.431 0 .87 0 1.302 0 .137-.04.302-.179.281-.4-.069-.558.213-.764.439-.02.027-.055.04-.18.116z" fill="#ABD03A"/><path d="M24.804 3.592c.159-.507.159-.507-.317-.507-.523 0-1.054-.007-1.577 0-.235.007-.331-.089-.331-.322.007-.432.007-.864 0-1.303 0-.22.096-.308.31-.308.882.007 1.764.007 2.645 0 .248 0 .359.11.352.35-.007.41 0 .822 0 1.233 0 .165-.048.35-.22.323-.366-.048-.531.171-.71.418-.014.041-.062.055-.152.116z" fill="#65C2E5"/><path d="M37.487 7.939c.069.062.158.11.193.185.09.192.227.267.434.24.248-.034.351.096.344.343-.007.418-.007.843 0 1.261.007.233-.096.33-.33.323-.882-.007-1.764-.007-2.646 0-.248 0-.351-.103-.344-.35.007-.411.007-.823 0-1.227-.007-.268.124-.357.379-.357.55.007 1.102-.014 1.646.007.338.014.379-.11.255-.377.027-.014.048-.034.069-.048z" fill="#ABD03A"/><path d="M35.165 52.988c.048-.41.048-.41-.365-.41-.482 0-.964-.008-1.447 0-.261.006-.378-.097-.365-.364.014-.377.007-.754 0-1.131-.007-.247.104-.357.352-.35.813.007 1.625.007 2.438 0 .248 0 .365.116.365.343.007.39.007.774 0 1.165 0 .151-.055.343-.234.322-.317-.034-.482.124-.627.357-.013.034-.069.041-.117.068zm18.284-8.61c.103-.44.103-.44-.352-.44-.482 0-.964-.006-1.446 0-.248.008-.359-.081-.352-.335.014-.39.014-.775 0-1.166-.007-.233.083-.342.317-.342h2.473c.228 0 .338.096.33.329-.006.397-.006.795 0 1.2 0 .143-.027.322-.199.294-.324-.04-.482.124-.627.357-.014.048-.082.068-.144.103z" fill="#65C2E5"/><path d="M15.607 46.414c.083-.418.083-.418-.337-.418-.482 0-.965-.007-1.44 0-.248.006-.351-.096-.344-.343.013-.377.013-.754 0-1.125-.007-.226.082-.342.316-.342h2.474c.2 0 .289.089.289.294-.007.412 0 .823 0 1.228 0 .123-.034.28-.158.26-.4-.062-.565.233-.8.446z" fill="#ABD03A"/><path d="M17.585 49.32c.151-.445.151-.445-.235-.445-.482 0-.964-.007-1.446 0-.297.007-.414-.117-.4-.411.014-.343.007-.686 0-1.029 0-.233.076-.356.344-.356.8.007 1.606.007 2.405 0 .255 0 .351.089.344.343-.014.363-.007.726 0 1.096 0 .165-.041.343-.213.33-.317-.028-.483.137-.634.356-.028.041-.076.055-.165.117z" fill="#65C2E5"/><path d="M58.67 24.935c.118-.268.062-.384-.261-.37-.469.027-.944 0-1.413.006-.268.007-.372-.11-.365-.37a17.06 17.06 0 000-1.028c-.007-.227.083-.343.324-.343h2.342c.22 0 .31.096.31.315-.007.377 0 .754 0 1.131 0 .103-.013.268-.117.254-.379-.048-.55.247-.792.425l-.028-.02zm-3.272-.343c.11-.439.11-.439-.324-.439-.461 0-.916-.007-1.377 0-.235.007-.331-.09-.324-.33.007-.362.007-.726 0-1.096-.007-.24.11-.322.337-.315.765.006 1.537.006 2.301 0 .248 0 .352.089.345.342-.014.364-.007.727 0 1.097 0 .13-.02.302-.172.281-.338-.048-.49.165-.662.377-.027.035-.076.055-.124.083zm-22.816 5.162c-.035.028-.069.09-.103.09-.359.013-.634.157-.82.486.069-.439.069-.439-.345-.439-.448 0-.895-.007-1.336.007-.255.007-.352-.103-.345-.343.007-.342.007-.685 0-1.028-.007-.254.117-.343.359-.343.744.007 1.488.007 2.232 0 .248 0 .358.096.351.343-.007.411 0 .823.007 1.227-.007.007 0 0 0 0z" fill="#ABD03A"/><path d="M45.733 51.549c.117-.268.034-.357-.262-.35-.468.02-.944 0-1.412.007-.234.007-.33-.09-.324-.322.007-.357.014-.706 0-1.063-.007-.247.117-.322.338-.322h2.273c.2 0 .296.075.296.28-.007.392 0 .776 0 1.166 0 .096-.027.233-.117.22-.365-.062-.523.247-.771.39l-.021-.006z" fill="#65C2E5"/><path d="M48.22 10.428c.076-.336-.076-.412-.393-.391-.413.027-.827 0-1.24.007-.255.007-.386-.076-.372-.357.014-.329.007-.665 0-.994-.007-.233.083-.336.324-.329.744.007 1.495.007 2.239 0 .207 0 .324.069.324.295-.007.363 0 .733 0 1.097 0 .11-.021.26-.124.247-.372-.048-.53.24-.758.425zm-4.705 35.718c.055-.246-.07-.294-.262-.294-.503.006-1.006-.007-1.509.006-.227.007-.31-.075-.296-.301.014-.343.007-.686 0-1.029-.007-.198.055-.294.269-.294.764.006 1.536.006 2.3 0 .193 0 .27.089.262.274-.007.363 0 .727 0 1.09 0 .171-.082.274-.248.247-.248-.041-.379.096-.516.301zM33.76 15.59c.186-.37.041-.439-.276-.425-.447.02-.895 0-1.336.007-.241.007-.358-.076-.352-.336.014-.35.007-.706 0-1.063 0-.199.083-.288.29-.288.765.007 1.536.007 2.3 0 .228 0 .304.096.297.316-.007.35-.007.706 0 1.062 0 .117 0 .288-.13.275-.36-.028-.545.205-.793.452zm11.587 3.572c.103-.24.028-.322-.234-.315-.469.013-.937-.007-1.405.006-.255.007-.352-.089-.338-.342.014-.343.007-.686 0-1.022-.007-.22.083-.308.303-.308.758.006 1.509.006 2.267 0 .227 0 .303.096.296.315-.007.35 0 .706 0 1.056 0 .13-.014.308-.166.28-.35-.075-.461.213-.66.371l-.063-.041zm2.04 10.722c.068-.226-.008-.301-.249-.294-.413.013-.826 0-1.24.006-.248.007-.358-.089-.351-.342a19.22 19.22 0 000-.892c0-.205.062-.322.296-.315.689.007 1.378.007 2.067 0 .2 0 .296.075.296.281-.007.33 0 .665 0 .994 0 .13-.048.268-.172.254-.31-.048-.427.199-.613.343l-.035-.035zm-19.097.734c.083-.233.02-.322-.248-.315-.42.02-.847 0-1.268.006-.213.007-.316-.082-.31-.301.007-.309.007-.617 0-.926-.006-.212.07-.315.297-.308.689.007 1.37.007 2.06 0 .227 0 .31.096.303.308-.007.309 0 .617 0 .926 0 .116-.021.295-.138.274-.345-.062-.455.233-.675.363-.007-.006-.014-.013-.021-.027zm16.527 13.088c.069-.206.048-.316-.22-.309-.421.02-.848-.007-1.275.007-.262.007-.345-.096-.338-.343a13.82 13.82 0 000-.925c0-.185.083-.268.269-.268.696.007 1.398.007 2.094 0 .214 0 .283.103.283.295v.686c.006.301.055.617-.434.562-.18-.02-.18.281-.366.322.007 0 0-.014-.013-.027zm4.987-21.02c.007.418.007.836.014 1.254 0 .158-.041.282-.227.26-.193-.013-.324.042-.414.22-.034.062-.082.172-.206.117l.007.007c.13-.268.041-.357-.248-.343-.4.02-.8-.007-1.206.007-.248.007-.358-.069-.351-.33a9.614 9.614 0 000-.89c-.007-.213.062-.316.296-.309.785.014 1.564.014 2.335.007.007.007 0 0 0 0zM45.395 38.53c.117-.261.042-.357-.248-.343-.4.02-.799-.007-1.205.007-.248.006-.358-.069-.345-.33a9.614 9.614 0 000-.89c-.007-.213.055-.316.29-.316.689.007 1.377.007 2.066 0 .207 0 .29.082.283.288-.007.322 0 .637 0 .96 0 .089 0 .246-.083.24-.344-.035-.503.274-.758.377v.007zm12.001-13.554c-.034.185-.014.294.227.28.386-.02.779 0 1.165-.006.234-.007.33.082.323.322a8.192 8.192 0 000 .823c.014.22-.062.315-.289.308a86.62 86.62 0 00-1.888 0c-.227 0-.303-.096-.296-.308.014-.22.014-.432 0-.652-.014-.287-.014-.534.393-.5.179.014.172-.26.351-.288l.014.02z" fill="#ABD03A"/><path d="M50.004 37.906c.035-.24-.027-.35-.31-.336-.386.027-.778 0-1.164.007-.241.006-.33-.09-.317-.323.014-.28.007-.569 0-.857-.007-.205.083-.288.29-.28.66.006 1.329.006 1.99 0 .207 0 .29.088.283.287-.007.226-.007.46 0 .686.013.28.013.528-.393.5-.193-.013-.193.275-.379.316z" fill="#65C2E5"/><path d="M39.464 48.203c-.186-.116-.303-.363-.593-.315-.09.013-.137-.103-.137-.206v-.96c0-.171.09-.24.261-.24.641.007 1.289.007 1.93 0 .192 0 .268.076.268.268a19.22 19.22 0 000 .89c.007.213-.096.282-.296.282-.393-.007-.779.014-1.171-.007-.22-.007-.297.055-.235.268l-.027.02zm.558-39.64c-.007-.117-.2.02-.159-.09.138-.39-.165-.253-.316-.26-.331-.013-.662-.007-.992 0-.207.007-.324-.068-.317-.295.007-.274.007-.548 0-.815 0-.186.069-.275.261-.275h1.854c.186 0 .275.076.268.268-.007.22-.007.432 0 .651.014.267.014.5-.372.487-.137-.014-.282.13-.227.329z" fill="#ABD03A"/><path d="M54.42 27.423c-.186-.11-.296-.343-.572-.301-.09.013-.151-.096-.165-.192-.007-.055-.007-.117-.007-.172.014-1.2-.159-1.015 1.006-1.028.358-.007.71 0 1.067 0 .22 0 .338.082.324.329-.013.26-.013.528 0 .788.007.22-.082.309-.303.302-.358-.007-.71.007-1.068-.007-.227-.02-.323.055-.282.281z" fill="#65C2E5"/><path d="M28.221 5.67c.11-.254.02-.322-.22-.316-.365.014-.73-.006-1.096.007-.22.007-.31-.089-.303-.301.007-.26.007-.521 0-.789-.007-.199.07-.295.283-.295.606.007 1.212.007 1.818 0 .207 0 .29.09.283.288-.007.22-.007.432 0 .652.014.26.007.48-.365.452-.186-.014-.18.254-.4.302z" fill="#ABD03A"/><path d="M44.582 21.088c-.013-.308-.013-.308-.344-.308-.33 0-.661-.007-.992 0-.227.007-.344-.076-.33-.315.013-.261.006-.522 0-.789-.008-.206.089-.288.289-.281.606.007 1.212.007 1.818 0 .228 0 .303.103.297.315a7.28 7.28 0 000 .549c.006.281.055.569-.393.535-.165-.014-.165.26-.345.294z" fill="#65C2E5"/><path d="M31.204 21.39c.09-.22.028-.302-.22-.288-.366.02-.738 0-1.103.007-.22.007-.303-.082-.31-.302-.055-1.076-.062-1.076 1.006-1.076.324 0 .648.02.965-.007.344-.027.447.11.42.432-.02.178-.014.363 0 .548.014.247-.02.446-.345.405-.22-.027-.193.315-.413.281z" fill="#ABD03A"/><path d="M42.144 3.483c.034-.206-.07-.254-.255-.254-.379.007-.758-.007-1.13.007-.186.007-.282-.069-.262-.26v-.07c-.027-1.048-.027-1.048 1.027-1.048.344 0 .689.007 1.026 0 .22-.007.31.089.303.308-.007.179 0 .364 0 .549 0 .267.076.569-.379.542-.096-.007-.2.164-.296.253a.188.188 0 01-.034-.027z" fill="#65C2E5"/><path d="M39.87 46.263c.09-.213.028-.288-.179-.281-.344.014-.689-.007-1.033.007-.227.007-.345-.069-.33-.316.013-.24.013-.48 0-.72-.015-.246.096-.315.33-.308.537.014 1.081.014 1.619 0 .234-.007.344.075.324.315-.014.185-.007.364 0 .549.013.267.027.514-.372.487-.145-.014-.159.212-.359.267z" fill="#ABD03A"/><path d="M36.853 7.473c.041-.233-.062-.295-.282-.288-.331.014-.662 0-1 .007-.213.007-.316-.076-.31-.302.008-.254.008-.5 0-.754-.006-.213.07-.315.297-.315a68.69 68.69 0 001.68 0c.221 0 .318.082.31.301-.006.192-.006.391 0 .583.008.26.035.514-.364.487-.159 0-.173.247-.331.28z" fill="#65C2E5"/><path d="M51.878 10.428c.034-.24-.069-.302-.303-.288-.317.02-.64-.007-.958.007-.213.006-.29-.083-.282-.282.027-1.24-.193-.98.957-1.007.317-.007.641.007.965 0 .206-.007.296.082.29.28-.008.193-.008.392 0 .584.006.246.013.466-.345.431-.173-.013-.166.24-.324.268v.007zm-4.485 11.71c.138-.295-.034-.295-.248-.289-.31.014-.62-.006-.93.007-.241.014-.31-.089-.317-.322-.014-.953-.02-.953.916-.953.331 0 .669.007 1 0 .185 0 .275.069.268.26-.007.193-.007.391 0 .583.007.24.028.467-.338.44-.158-.021-.165.232-.35.273z" fill="#ABD03A"/><path d="M48.695 6.917c.014-.157-.055-.219-.22-.212-.276.014-.551.007-.82 0-.083 0-.172.02-.241-.007-.448-.233-.145-.651-.214-.973-.048-.22.131-.254.31-.247.503.007 1.006.007 1.509 0 .227-.007.31.089.296.301a7.28 7.28 0 000 .549c.014.233-.014.411-.317.39-.137-.006-.165.179-.303.2z" fill="#65C2E5"/><path d="M37.742 36.665c.075-.226-.007-.288-.207-.281-.262.013-.524 0-.785 0-.055 0-.124.02-.173-.007-.372-.213-.11-.57-.179-.85-.034-.165.028-.288.235-.288.489.007.985 0 1.474 0 .034 0 .069 0 .103.007.186.054.165.212.145.336-.042.26.172.617-.145.767-.172.09-.324.151-.468.316zm18.435-21.48c0-.164-.028-.253-.214-.24a11.83 11.83 0 01-.854 0c-.09 0-.207.014-.228-.095a3.17 3.17 0 01-.006-.885c.013-.116.124-.11.22-.11H56.5c.035 0 .083-.006.104.007.262.227.082.528.124.796.02.116.034.288-.152.28-.2-.006-.282.124-.4.248zm-5.408 13.61c0-.13-.035-.213-.193-.2-.241.014-.482.007-.723.007-.056 0-.118-.006-.173 0-.282.02-.261-.198-.22-.35.062-.246-.234-.657.213-.726.455-.069.937-.014 1.406-.014.034 0 .076-.007.103.007.29.192.097.48.138.72.02.123.083.35-.138.35-.213-.007-.275.144-.413.205z" fill="#ABD03A"/><path d="M27.828 33.73c.021-.178-.082-.205-.234-.198-.275.007-.55-.007-.826.007-.173.006-.248-.055-.248-.234.013-1.021-.118-.836.778-.857.262-.006.53 0 .792 0 .117 0 .262 0 .276.144.02.275.007.549.007.823 0 .062-.049.124-.104.11-.213-.055-.275.171-.44.205z" fill="#65C2E5"/><path d="M40.022 8.57c.517 0 1.026.013 1.543 0 .207 0 .296.068.29.274-.007.15-.007.295 0 .446.006.205.006.397-.29.377-.083-.007-.11.068-.151.123-.028.034-.083.096-.104.062-.213-.391-.572-.144-.854-.178-.434-.048-.44-.014-.44-.46 0-.22.006-.432.006-.644 0-.007 0 0 0 0zm8.55 10.222c-.021-.124-.021-.233-.207-.227-.283.021-.572 0-.855.007-.172.007-.234-.068-.248-.24-.069-.843-.069-.843.779-.843.262 0 .523.007.792 0 .2-.007.303.062.282.274-.013.144-.006.295 0 .446.007.206.014.398-.289.377-.13-.007-.13.178-.255.206z" fill="#ABD03A"/><path d="M40.642 6.513c.007-.158-.069-.213-.227-.206-.262.014-.524.007-.793 0-.103 0-.24.02-.261-.103a2.504 2.504 0 01-.007-.877c.02-.11.13-.11.227-.11h1.337c.186 0 .275.076.268.268-.007.123 0 .253 0 .377 0 .226.048.473-.31.48-.076-.007-.158.11-.234.171zM44.5 16.728c0-.15-.07-.22-.234-.212-.276.013-.552 0-.827 0-.103 0-.234-.007-.241-.138a6.447 6.447 0 010-.815c.007-.13.13-.137.24-.137h1.344c.186 0 .276.082.269.267-.007.15-.007.295 0 .446.007.205.014.404-.29.383-.137 0-.144.179-.261.206zm-9.438-4.936c.007-.15-.062-.22-.227-.213-.276.014-.552 0-.827 0-.103 0-.234-.006-.248-.13a5.466 5.466 0 010-.823c.007-.13.13-.137.241-.137h1.343c.049 0 .104-.006.131.02.262.22.076.508.124.769.02.116.028.295-.144.288-.193-.007-.262.15-.393.226zm5.298 7.74c-.014-.178-.152-.137-.255-.144-.255 0-.503-.007-.758 0-.228.007-.31-.089-.296-.308.013-.185.006-.364 0-.549-.007-.178.068-.24.248-.24.447.007.895.007 1.343 0 .186 0 .282.069.276.26a2.845 2.845 0 000 .344c.006.253.04.52-.352.514-.069 0-.096.13-.193.13l-.013-.007zM31.08 5.204h.207c.682 0 .813.17.675.85-.042.192-.186.178-.31.198-.09.014-.11.282-.29.035-.103-.151-.413-.02-.62-.048-.179-.028-.44.11-.53-.11-.096-.247-.055-.542-.014-.809.02-.11.138-.103.228-.11.213-.006.434-.006.654-.006z" fill="#65C2E5"/><path d="M11.936 39.585c.055-.438.254-.836.344-1.268.014-.09.076-.144.172-.13.29.027.586-.02.875.068-.007.343-.007.679-.014 1.022 0 .123.007.308-.158.28-.296-.04-.42.152-.579.323l-.062-.062c.042-.171-.007-.26-.2-.246-.124.006-.248.006-.378.013z" fill="#ABD03A"/><path d="M29.489 14.61c.007-.35-.11-.693-.07-1.042.38 0 .752.013 1.13 0 .276-.014.414.068.38.363-.014.137 0 .274-.007.411 0 .096-.455.48-.496.425-.276-.342-.634-.075-.937-.157z" fill="#65C2E5"/><path d="M14.388 46.585h.138c.668 0 .73.069.627.734-.028.157-.359.274-.503.212-.214-.096-.455-.055-.675-.027-.427.048-.38-.213-.386-.487-.014-.288.014-.5.393-.439.13.02.275.007.406.007z" fill="#ABD03A"/><path d="M21.849 3.407c-.786-.089-1.57-.055-2.356.014 0-.795-.076-.686.696-.692.42-.007.847.02 1.267-.007.33-.02.434.11.393.411-.014.096 0 .185 0 .274zm27.756 3.901c0-.445 0-.445.454-.452h.861c.173 0 .241.075.255.247.042.48-.034.623-.44.809-.021.013-.076.013-.076.013-.11-.363-.407-.15-.607-.164-.447-.035-.454-.007-.447-.453z" fill="#65C2E5"/><path d="M32.568 11.6h.172c.62 0 .696.09.593.713-.028.171-.338.254-.503.206a1.86 1.86 0 00-.675-.028c-.427.055-.345-.226-.359-.466-.013-.26-.006-.487.366-.432.124.028.268.007.406.007zm7.171 3.963h.173c.64.013.578-.144.578.617 0 .26-.248.363-.51.294-.213-.054-.454-.04-.681-.02-.27.02-.393-.069-.352-.343a.713.713 0 000-.171c-.048-.302.083-.418.386-.377.13.013.269 0 .406 0zm1.93.672h.137c.682 0 .69.006.62.678-.02.2-.317.295-.51.24-.2-.055-.434-.04-.647-.02-.303.027-.4-.083-.393-.384.02-.624-.014-.508.517-.514h.275z" fill="#ABD03A"/><path d="M17.908 44.974c-.027-.171-.158-.13-.268-.13-.117-.007-.228 0-.345 0-.489 0-.468 0-.496-.473-.014-.323.07-.467.42-.432.283.027.572.013.862 0 .227-.007.275.089.303.301.055.405-.09.638-.476.734zm2.687 6.719c-.014-.151-.124-.13-.227-.137h-.414c-.454 0-.454 0-.454-.446s0-.446.454-.446c.276 0 .551.007.827 0 .2-.007.269.069.296.275.048.397-.062.665-.482.754zm38.523-23.324h.31c.524 0 .524 0 .503.521-.007.192-.31.487-.455.398-.282-.178-.578-.082-.854-.082-.365.007-.337-.2-.337-.44 0-.225-.021-.445.323-.404.166.028.338.007.51.007zm-6.875 16.598h.276c.53 0 .53 0 .523.507-.007.213-.275.5-.44.412-.325-.172-.641-.055-.958-.082-.4-.042-.207-.33-.241-.521-.042-.192.013-.336.268-.316.186.014.38 0 .572 0z" fill="#65C2E5"/><path d="M42.282 25.874c.158.329-.276.487-.359.452-.344-.15-.702 0-1.026-.116-.2-.076-.069-.302-.097-.46-.055-.294.062-.418.372-.384.214.028.434.007.655.007.455-.007.455-.007.455.5z" fill="#ABD03A"/><path d="M38.086 53.715c.18.398-.351.521-.379.507-.358-.253-.792.014-1.123-.15-.213-.103-.069-.419-.082-.631-.014-.165.13-.158.24-.158.31 0 .62.02.93-.007.359-.04.504.076.414.44z" fill="#65C2E5"/><path d="M47.021 19.19h.138c.647.013.579-.138.579.61 0 .24-.276.342-.503.274-.2-.062-.427-.041-.641-.028-.255.02-.365-.061-.33-.322.013-.089.006-.185 0-.274-.021-.213.082-.281.282-.267.151.013.31.006.475.006z" fill="#ABD03A"/><path d="M43.06 47.572h.241c.51 0 .51 0 .496.515-.007.294-.227.41-.517.342-.206-.048-.434-.034-.647-.027-.207.007-.296-.062-.276-.274.007-.09.014-.185 0-.275-.027-.233.076-.308.297-.288.13.014.275.007.406.007zm5.45-8.631h.137c.579 0 .579 0 .551.583-.014.253-.234.35-.475.274-.193-.062-.414-.048-.613-.02-.366.04-.31-.2-.31-.412 0-.206-.07-.466.303-.425.13.014.268 0 .406 0zm-7.868-18.696c.145.316-.13.39-.317.514-.13.09-.103-.157-.255-.123-.186.041-.386 0-.579.014-.179.007-.254-.062-.24-.24a2.845 2.845 0 000-.343c-.014-.192.068-.267.261-.254.241.014.482.02.717 0 .344-.04.503.069.413.432z" fill="#65C2E5"/><path d="M28.16 31.2c.068 0 .137-.013.206 0 .13.028.358-.095.358.172 0 .213.103.549-.234.542-.283-.007-.593.048-.848-.076-.158-.075-.062-.336-.055-.507.007-.137.131-.13.235-.13h.337zm23.146-1.514c.069 0 .138-.014.207 0 .13.027.358-.103.358.164.007.22.103.549-.241.542-.276-.007-.593.04-.84-.076-.159-.075-.07-.336-.063-.507.007-.144.138-.123.235-.123h.344zm6.393-11.84c.083 0 .165-.007.241 0 .131.02.33-.083.338.164.007.22.096.549-.248.542-.269 0-.572.027-.827-.069-.179-.068-.062-.308-.083-.466-.013-.13.07-.178.193-.178.138.007.262.007.386.007zM42.137 46.31c.069 0 .138-.014.207 0 .13.027.358-.103.358.171 0 .206.117.5-.228.528-.282.02-.592.02-.854-.075-.158-.055-.062-.33-.062-.5 0-.152.138-.117.234-.124.118-.007.228 0 .345 0zm15.59-19.1c.055 0 .117-.007.172 0 .124.02.31-.083.365.089.055.164.083.384-.02.528a.3.3 0 01-.414.068c-.076-.048-.2-.007-.303-.007-.372 0-.51-.205-.393-.562.035-.096.097-.116.18-.116h.413zM17.833 40.723c.082 0 .158-.006.24 0 .118.021.331-.075.318.138-.014.185.192.507-.186.548-.29.034-.6.041-.875-.048-.166-.055-.062-.33-.07-.5 0-.151.125-.138.228-.138h.345zm-.028 1.755c.09 0 .186.014.276 0 .24-.034.282.09.282.295.007.233-.09.302-.303.281-.11-.013-.227-.006-.345-.006-.206-.007-.434.075-.427-.295.007-.357.228-.26.414-.275.034-.006.069 0 .103 0zm37.58-30.103c.2-.014.475-.062.413.356-.02.124-.055.206-.173.206-.227 0-.468.02-.688-.041-.159-.041-.07-.24-.083-.364-.014-.116.062-.157.172-.157h.358z" fill="#ABD03A"/><path d="M46.25 16.865c-.255-.013-.572.096-.503-.343.02-.137.075-.205.22-.205.117 0 .227.007.345 0 .234-.014.427-.014.4.322-.028.315-.221.254-.414.22a.169.169 0 00-.048.006zm-4.196 2.873c-.13-.028-.303.068-.4-.082-.068-.103-.048-.247-.02-.364.034-.137.165-.089.262-.096.103-.007.206 0 .31 0 .193 0 .379-.04.379.274-.007.336-.2.288-.407.275-.048-.007-.082-.007-.124-.007zm2.721-16.721c.049.219-.124.356-.255.287-.227-.116-.688.227-.682-.301.007-.48.4-.213.62-.26.2-.049.372.006.317.274z" fill="#65C2E5"/><path d="M30.46 4.401c.062.213-.083.295-.227.309-.469.034-.655-.075-.634-.343.041-.445.386-.158.579-.22.192-.06.358.008.282.254zM57.403 16.66c.496 0 .496.013.482.363-.007.178-.172.247-.227.226-.2-.068-.393-.02-.586-.055-.186-.04-.096-.198-.11-.315-.014-.096-.02-.22.138-.22h.303zm-30.34-9.962a3.894 3.894 0 01-.557-.7c.103 0 .206-.006.303.008.13.02.344-.09.372.11.02.191.13.431-.117.582zm-1.329-1.467c-.165-.103-.33-.206-.448-.37.276-.035.434.082.448.37zm6.944 24.633c-.034-.034-.069-.069-.103-.11l-.007.007c.048.034.124-.02.159.048-.014.014-.028.034-.049.055zM12.576 39.88c-.034.02-.09.069-.096.062-.055-.055 0-.09.034-.124.028.021.042.042.062.062zM37.43 8.005a.387.387 0 01-.018-.1c.036.016.073.025.1.041-.027.017-.055.042-.082.059z" fill="#ABD03A"/><path d="M34.59 6.095c.01.02.02.04.04.05-.02-.01-.04-.02-.05-.04l.01-.01zm2.279 1.378c0 .01-.01.03-.02.04 0 .01-.02 0-.03.01l.05-.05z" fill="#65C2E5"/><path d="M45.172 8.91l-.5-.3h.25c.083.1.083.3.25.3-.083.1 0 0 0 0z" fill="#ABD03A"/><path d="M48.72 6.926c-.02.02-.04.03-.06.05.02-.02.04-.04.06-.05-.01-.01 0 0 0 0zM17.919 44.974c-.01.02-.02.03-.03.05v-.03c.01-.01.02-.01.03-.02zm24.27-41.461c-.02.02-.05.06-.05.06-.06-.04-.01-.07.02-.09l.03.03zm3.58 48.056c-.02.01-.04.03-.07.04.01-.02.03-.04.04-.06.01 0 .03.02.03.02z" fill="#65C2E5"/><path d="M48.243 10.43a.18.18 0 01-.07.05c0-.02-.01-.04 0-.05.02-.04.05-.04.07 0 0 .01 0 0 0 0zm-8.742 37.746c.02.03.03.06.05.09-.06.02-.07-.01-.08-.05-.01 0 .03-.04.03-.04z" fill="#ABD03A"/><path d="M20.874 51.693c-.1.2-.2.3-.3.5v-.3c.1-.1.2-.1.3-.2z" fill="#65C2E5"/><path d="M52.258 10.42c-.143.2-.285.3-.428.5v-.4h.5l-.072-.1z" fill="#ABD03A"/><path d="M53.451 44.397h-.03c0-.01 0-.03.01-.03.01-.01.03-.01.04-.01-.01.01-.01.02-.02.04zM40.658 6.513c0 .01-.01.03-.02.04 0 .01-.02 0-.03.01l.05-.05z" fill="#65C2E5"/><path d="M28.347 30.654c-.02.019-.04.046-.06.064-.06-.045-.03-.073.02-.1.01.018.02.027.04.036zm19.105-.723c-.03.01-.07.03-.1.04.02-.03.03-.06.05-.08.02.01.03.02.05.04zm3.342-1.137c-.01.02-.02.05-.04.07a.176.176 0 00-.04-.05c.03-.01.05-.02.08-.02z" fill="#ABD03A"/><path d="M28.2 33.73c-.1.2-.3.3-.4.5v-.3c.1-.1.3-.2.4-.2z" fill="#65C2E5"/><path d="M28.31 28.589c.1 0 .3.1.4.1-.1.1-.3.2-.4.3v-.4z" fill="#ABD03A"/><path d="M55.792 27.928c-.03-.03-.08-.05-.02-.09.01 0 .04.03.06.05l-.04.04zm-1.372-.505c.02.01.03.03.05.04h-.03c-.01-.01-.01-.03-.02-.04z" fill="#65C2E5"/><path d="M58.726 24.971c-.02.02-.04.05-.06.07l-.03-.03c.02-.02.04-.05.06-.07l.03.03zm-1.344.003l.06-.06c.01.01.03.04.02.04-.02.02-.04.04-.06.05l-.02-.03zm-15.38 11.64c-.033.01-.066.01-.1.02.017-.03.026-.07.042-.1.025.02.042.05.059.08zm6.978-12.077c-.01.02-.01.04-.02.06 0-.01-.01-.02-.01-.03.01-.01.02-.02.04-.03 0 .01-.01 0-.01 0zm-17.77-3.154v.06h-.04c.02-.02.03-.04.05-.05l-.01-.01z" fill="#ABD03A"/><path d="M40.392 19.552c-.02.01-.04.03-.06.04.01-.02.03-.04.04-.06l.02.02zm9.638 18.362c-.02.01-.04.03-.06.04.02-.01.04-.03.06-.04-.01-.01 0 0 0 0z" fill="#65C2E5"/><path d="M45.432 19.211c-.02.041-.049.066-.098.041-.01-.008.02-.057.03-.09.019.016.048.033.068.05zm-.031 19.312v.06h-.04c.02-.02.03-.04.05-.05l-.01-.01zm3.185-19.738c-.02.02-.04.04-.06.05 0-.01 0-.03-.01-.04.03 0 .05 0 .07-.01.01.01 0 0 0 0z" fill="#ABD03A"/><path d="M35.75 18.648c.01.01.03.01.04.02.01 0 0 .02 0 .03a.218.218 0 00-.04-.05zm8.765-1.92c-.01.01-.01.03-.02.04 0 .01-.02 0-.03 0 .02-.02.04-.03.05-.04z" fill="#65C2E5"/><path d="M44.87 43.753c-.01.037-.03.075-.08.037-.01-.01.02-.056.04-.084.02.018.03.037.04.047zm10.128-28.55c-.026-.034-.053-.075.009-.1.009-.008.044.025.062.042a.497.497 0 01-.07.057z" fill="#ABD03A"/><path d="M35.527 11.792c-.1.1-.1.3-.2.4 0 .1-.2 0-.3 0 .2-.1.4-.3.5-.4z" fill="#65C2E5"/><path d="M21.794 3.517c.158.158.372.075.558.117 1.06.24 2.004.706 2.88 1.33.11.164.282.267.447.37.255.253.51.514.772.768.158.253.344.493.565.706 1.357 1.981 2.039 4.202 2.294 6.568.013.102.034.198.055.301-.042.35.075.693.069 1.042.04 1.94-.097 3.86-.49 5.766-.082.411-.172.823-.261 1.234-.159.357-.228.734-.29 1.11-.165.515-.33 1.022-.503 1.536-.475 1.132-.93 2.27-1.46 3.374-.434.774-.875 1.549-1.309 2.33-.91 1.351-1.888 2.64-3.01 3.826-.152.123-.31.233-.4.418-.51.432-1.02.87-1.522 1.303-.462.322-.917.644-1.378.96-.558.28-1.116.569-1.681.843-.785.384-1.633.576-2.466.802-.469.041-.937.09-1.399.13-.29-.082-.585-.034-.875-.068-.096-.007-.151.048-.172.13-.083.432-.29.83-.344 1.268-.076.26-.145.528-.22.789-.304.788-.51 1.61-.717 2.434-.448 1.515-.896 3.037-1.35 4.552-.063.212-.138.418-.207.63-.145.042-.11-.191-.255-.164-.338 1.447-.806 2.845-1.226 4.257-.304 1.022-.538 2.064-.903 3.079-.241.672-.393 1.37-.572 2.063-.048.192-.124.254-.31.179a9.34 9.34 0 00-.613-.227C3.903 56.76 2.36 56.094.77 55.546c-.207-.076-.242-.185-.124-.357.248-.356.372-.775.544-1.172.578-1.296 1.15-2.599 1.784-3.874.51-1.014.882-2.09 1.426-3.092.372-.685.634-1.433.964-2.146.62-1.364 1.254-2.728 1.881-4.092.524-1.132 1.047-2.27 1.57-3.4.242-.515.208-.707-.185-1.009-.786-.61-1.392-1.37-1.922-2.207-.772-1.214-1.247-2.558-1.57-3.942-.276-1.18-.407-2.393-.442-3.607-.02-.863.07-1.727.124-2.584.09-1.296.352-2.557.634-3.819.138-.617.338-1.22.53-1.823.352-1.07.703-2.146 1.185-3.168.42-.877.861-1.748 1.344-2.598.379-.672.792-1.323 1.254-1.934.42-.548.86-1.09 1.302-1.624.833-1.015 1.784-1.893 2.81-2.702a14.01 14.01 0 013.135-1.864c.213-.096.227-.172.09-.323.633-.37 1.343-.486 2.045-.617.097-.02.2-.048.297-.068.771-.069 1.556-.096 2.349-.007zm4.071 9.543c.324.24.303.617.283.926-.042.52-.021 1.042-.083 1.563-.117.987-.18 1.981-.386 2.962-.138.637-.255 1.289-.406 1.926a26.713 26.713 0 01-.779 2.626 41.78 41.78 0 01-.985 2.53 34.017 34.017 0 01-.93 1.96c-.096.2-.303.309-.51.384-.654 1.125-1.309 2.25-2.094 3.291-1.302 1.728-2.749 3.305-4.664 4.388-1.164.651-2.39 1.042-3.754.816-.372-.062-.724-.2-1.075-.336-.048.226-.2.247-.358.137-.558-.377-1.075-.802-1.481-1.344-.648-.857-1.082-1.817-1.358-2.845-.248-.912-.385-1.851-.468-2.804-.083-.953-.076-1.913-.041-2.866.034-.953.124-1.92.31-2.865.186-.953.33-1.92.585-2.852.262-.96.524-1.92.868-2.86.69-1.864 1.502-3.674 2.494-5.402.4-.699.861-1.364 1.309-2.036.668-1.015 1.481-1.906 2.315-2.776 1.06-1.104 2.266-2.023 3.706-2.62a7.58 7.58 0 011.137-.37c.31-.075.592-.054.833.172 2.088-.041 3.424 1.07 4.327 2.824.682 1.33.978 2.77 1.116 4.244.034.411.062.816.09 1.227zM17.09 4.216c.137.151.13.233-.09.323a14.325 14.325 0 00-3.135 1.864c-1.02.81-1.977 1.687-2.81 2.701-.441.535-.882 1.077-1.302 1.625a17.86 17.86 0 00-1.254 1.934c-.482.85-.923 1.72-1.343 2.598-.483 1.022-.834 2.091-1.185 3.167-.2.604-.393 1.207-.53 1.824-.283 1.261-.545 2.523-.635 3.819-.055.864-.151 1.72-.124 2.584.028 1.214.166 2.427.441 3.606.324 1.385.8 2.722 1.571 3.943.53.83 1.137 1.597 1.922 2.207.393.302.427.494.186 1.008-.523 1.131-1.047 2.27-1.57 3.4-.628 1.365-1.261 2.729-1.881 4.093-.324.713-.593 1.454-.965 2.146-.544 1.001-.916 2.077-1.426 3.092-.634 1.275-1.205 2.571-1.784 3.874-.172.39-.296.809-.544 1.172-.117.171-.083.288.124.356 1.584.549 3.134 1.207 4.732 1.728.207.069.414.144.614.226.186.076.261.014.31-.178.179-.692.33-1.398.571-2.063.365-1.008.6-2.05.903-3.079.42-1.412.889-2.817 1.226-4.257.145-.028.117.206.255.164-.18.912-.496 1.783-.75 2.667-.655 2.27-1.324 4.539-1.978 6.808-.131.446-.124.446-.572.288-1.894-.7-3.782-1.399-5.676-2.084-.262-.096-.27-.199-.166-.418 1.481-3.216 2.963-6.438 4.437-9.653l3.927-8.563c.062-.144.117-.247-.049-.377-1.853-1.474-2.886-3.456-3.5-5.684-.709-2.577-.77-5.203-.44-7.85.468-3.757 1.674-7.267 3.568-10.537 1.585-2.742 3.569-5.149 6.18-6.993.854-.596 1.75-1.131 2.742-1.48z" fill="#4167B1"/><path d="M10.88 37.082c-4.82-1.66-6.21-10.318-3.104-19.34 3.107-9.02 9.532-14.989 14.353-13.329 4.82 1.66 6.21 10.319 3.103 19.34-3.106 9.021-9.532 14.989-14.352 13.33z" stroke="#416AB6" stroke-width="4"/></g></svg>