<svg height="80" width="96" xmlns="http://www.w3.org/2000/svg"><path d="m89.371 78.577h-83.487a4.49 4.49 0 0 1 -4.489-4.489v-57.677a4.49 4.49 0 0 1 4.489-4.489h83.488a4.49 4.49 0 0 1 4.489 4.489v57.677a4.49 4.49 0 0 1 -4.489 4.489z" fill="#60a0f7"/><path d="m47.659 71.845h-35.722c-2.085 0-3.776-1.691-3.776-3.776v-60.437c0-2.085 1.691-3.776 3.776-3.776h25.772c5.495 0 9.95 4.455 9.95 9.95v58.038z" fill="#eaf2ff"/><path d="m37.708 3.857h-10.492c5.495 0 9.95 4.455 9.95 9.95v58.037h10.492v-58.037c0-5.495-4.455-9.95-9.95-9.95z" fill="#c9e0fd"/><path d="m83.319 71.845h-35.664v-58.038c0-5.495 4.455-9.95 9.95-9.95h25.713c2.085 0 3.776 1.691 3.776 3.776v60.436c0 2.085-1.69 3.776-3.776 3.776z" fill="#eaf2ff"/><path d="m83.319 3.857h-10.232c2.085 0 3.776 1.69 3.776 3.776v60.436c0 2.085-1.69 3.776-3.776 3.776h10.233c2.085 0 3.776-1.691 3.776-3.776v-60.437c0-2.085-1.69-3.776-3.776-3.776z" fill="#c9e0fd"/><path d="m59.841 2.784v20.805c0 .878 1.057 1.321 1.684.707l3.343-3.281a.99.99 0 0 1 1.387 0l3.343 3.281c.626.615 1.684.171 1.684-.707v-20.805a1.36 1.36 0 0 0 -1.361-1.361h-8.717a1.36 1.36 0 0 0 -1.361 1.361z" fill="#e49542"/><path d="m89.372 10.527h-.881v-2.895a5.18 5.18 0 0 0 -5.171-5.171h-10.664a2.76 2.76 0 0 0 -2.736-2.433h-8.717a2.76 2.76 0 0 0 -2.736 2.433h-.861c-4.283 0-8.018 2.386-9.949 5.898-1.931-3.512-5.666-5.898-9.949-5.898h-25.771a5.18 5.18 0 0 0 -5.171 5.171v2.895h-.881c-3.245 0-5.885 2.64-5.885 5.884v57.677c0 3.244 2.64 5.884 5.884 5.884h83.488c3.244 0 5.884-2.64 5.884-5.884v-57.677c0-3.245-2.64-5.884-5.884-5.884zm-31.766-5.275h.841v18.338c0 2.11 2.549 3.181 4.056 1.702l3.059-3.002 3.059 3.002c1.5 1.473 4.056.418 4.056-1.702v-8.405c0-.771-.625-1.395-1.395-1.395s-1.395.625-1.395 1.395v7.44l-2.654-2.604a2.4 2.4 0 0 0 -3.342 0l-2.654 2.604v-19.807h8.649v5.716c0 .771.625 1.395 1.395 1.395s1.395-.625 1.395-1.395v-3.282h10.642c1.313 0 2.381 1.068 2.381 2.381v60.436c0 1.313-1.068 2.381-2.381 2.381h-34.264v-56.643c0-.022-.002-.043-.002-.064.035-4.688 3.858-8.491 8.553-8.491zm34.859 68.837a3.1 3.1 0 0 1 -3.093 3.093h-83.488a3.1 3.1 0 0 1 -3.093-3.093v-57.678a3.1 3.1 0 0 1 3.093-3.093h.881v42.417c0 .771.625 1.395 1.395 1.395s1.395-.625 1.395-1.395v-48.103c0-1.313 1.068-2.381 2.38-2.381h25.772c4.696 0 8.519 3.803 8.553 8.491 0 .022-.002.043-.002.064s.002.043.003.065v56.577h-34.324c-1.313 0-2.38-1.068-2.38-2.381v-5.811c0-.771-.625-1.395-1.395-1.395s-1.395.625-1.395 1.395v5.811a5.18 5.18 0 0 0 5.171 5.171h35.719.003 35.66a5.18 5.18 0 0 0 5.171-5.171v-54.75h.881a3.1 3.1 0 0 1 3.093 3.093v57.677z"/></svg>